<?xml version="1.0" standalone="no"?>
<!DOCTYPE svg PUBLIC "-//W3C//DTD SVG 20010904//EN"
 "http://www.w3.org/TR/2001/REC-SVG-20010904/DTD/svg10.dtd">
<svg version="1.0" xmlns="http://www.w3.org/2000/svg"
 width="887.000000pt" height="887.000000pt" viewBox="0 0 887.000000 887.000000"
 preserveAspectRatio="xMidYMid meet">
<metadata>
Created by potrace 1.14, written by Peter Selinger 2001-2017
</metadata>
<g transform="translate(0.000000,887.000000) scale(0.100000,-0.100000)"
fill="#000000" stroke="none">
<path d="M3389 8818 c-26 -29 -100 -115 -167 -190 l-120 -138 94 -227 c52
-125 96 -228 97 -229 2 -2 52 -10 112 -19 61 -9 121 -18 135 -20 14 -2 48 -7
75 -11 28 -3 59 -8 70 -11 11 -2 42 -6 70 -9 27 -3 51 -7 53 -9 5 -5 6 -5 127
135 55 63 114 130 130 149 41 46 47 53 68 77 17 20 15 27 -74 240 -50 120 -93
224 -96 230 -2 6 -32 15 -66 19 -79 9 -93 11 -142 19 -40 7 -313 46 -318 46
-1 0 -23 -24 -48 -52z"/>
<path d="M6263 8013 c-122 -75 -220 -141 -218 -147 2 -6 6 -54 9 -106 9 -142
18 -281 21 -315 2 -16 4 -36 4 -43 1 -13 41 -33 291 -146 69 -31 138 -64 153
-72 27 -15 30 -14 170 72 314 192 307 187 302 209 -2 11 -7 63 -10 115 -3 52
-8 136 -12 185 -3 50 -6 107 -7 127 -1 21 -4 39 -7 41 -2 2 -69 33 -149 70
-80 36 -185 84 -233 106 -49 23 -89 41 -90 41 -1 0 -102 -62 -224 -137z"/>
<path d="M4400 7862 c-21 -2 -46 -37 -144 -195 -66 -106 -131 -210 -145 -232
-31 -48 -150 -238 -221 -352 -45 -73 -49 -86 -39 -105 7 -13 94 -153 193 -313
100 -159 185 -298 191 -307 5 -10 39 -65 75 -122 l65 -105 542 -1 541 0 84
132 c46 73 88 142 94 153 6 11 89 144 184 295 95 151 173 280 173 286 0 6 -62
109 -137 230 -76 120 -142 226 -147 234 -5 8 -61 98 -124 200 -63 102 -116
189 -118 193 -2 8 -1008 16 -1067 9z"/>
<path d="M2687 6952 c-9 -2 -42 -45 -73 -95 -31 -51 -83 -132 -114 -182 -98
-153 -361 -577 -363 -584 -1 -4 34 -65 78 -136 44 -71 82 -133 84 -139 2 -6 8
-15 13 -21 5 -5 88 -137 185 -292 l176 -283 543 0 c423 0 543 3 548 13 3 6 15
26 26 42 11 17 23 37 27 45 3 8 18 33 33 55 63 94 430 685 437 703 5 10 -96
181 -232 392 -23 36 -97 155 -165 265 -68 110 -127 204 -131 209 -8 8 -1031
16 -1072 8z"/>
<path d="M6079 6940 c-9 -8 -58 -82 -109 -165 -51 -82 -104 -168 -119 -190
-14 -22 -31 -49 -37 -60 -13 -23 -172 -277 -219 -350 -59 -91 -58 -85 -16
-151 21 -32 69 -108 106 -169 37 -60 82 -132 100 -160 18 -27 92 -146 164
-262 l132 -213 534 0 c293 0 540 3 549 6 9 3 16 10 16 15 0 5 25 48 55 94 30
47 55 88 55 91 0 3 5 10 10 17 14 16 368 584 387 620 14 28 11 32 -159 305
-95 152 -177 284 -183 294 -12 19 -160 256 -174 277 -14 22 -1067 23 -1092 1z"/>
<path d="M4410 6042 c-33 -3 -39 -10 -111 -125 -42 -67 -143 -229 -225 -360
-82 -131 -153 -246 -159 -255 -5 -10 -25 -41 -42 -68 -18 -28 -33 -53 -33 -56
0 -3 63 -106 139 -229 77 -123 197 -317 268 -431 l128 -208 544 3 544 2 85
135 c46 74 93 150 104 169 11 19 37 61 59 93 21 33 39 61 39 64 0 2 23 38 50
80 28 41 50 77 50 80 0 2 15 28 34 57 48 76 102 160 109 173 3 6 -9 33 -27 61
-18 27 -35 56 -39 64 -4 8 -27 46 -51 84 -45 70 -122 193 -141 224 -80 132
-261 419 -271 430 -10 11 -102 14 -516 15 -276 0 -519 0 -538 -2z"/>
<path d="M2675 5127 c-8 -4 -20 -20 -28 -35 -14 -27 -403 -651 -477 -766 l-38
-58 41 -67 c45 -74 39 -64 306 -491 l194 -310 541 0 541 0 120 192 c66 105
122 196 124 202 2 5 8 15 13 21 13 15 269 427 275 441 3 7 -15 45 -39 84 -24
39 -47 80 -53 90 -5 11 -13 20 -17 20 -5 0 -8 4 -8 10 0 5 -32 60 -71 122 -39
62 -81 129 -93 148 -13 19 -44 68 -69 107 -26 40 -47 75 -47 78 0 2 -31 53
-69 111 l-69 107 -532 1 c-292 1 -538 -2 -545 -7z"/>
<path d="M6091 5129 c-14 -6 -59 -73 -201 -304 -50 -81 -146 -235 -165 -265
-74 -113 -178 -287 -178 -296 0 -6 16 -35 35 -65 19 -30 77 -121 128 -204 103
-167 115 -186 187 -300 28 -44 80 -127 116 -185 l64 -105 544 -2 544 -3 240
387 c132 212 253 405 268 429 35 53 50 18 -161 358 -89 142 -162 262 -162 266
0 5 -3 10 -8 12 -10 4 -92 137 -92 149 0 5 -3 9 -7 9 -5 0 -24 27 -42 60 -19
33 -40 60 -45 61 -58 5 -1052 2 -1065 -2z"/>
<path d="M1485 4233 c-127 -46 -237 -87 -245 -92 -17 -9 -24 -41 -46 -201 -2
-19 -11 -73 -19 -120 -8 -47 -17 -104 -20 -127 l-6 -42 113 -84 c62 -46 147
-108 188 -137 41 -30 81 -61 89 -68 19 -18 34 -14 291 82 248 91 231 79 244
182 3 27 8 60 11 74 2 14 6 41 9 60 6 48 15 105 26 169 6 30 10 62 10 72 0 10
-57 58 -147 123 -82 59 -155 112 -163 119 -9 7 -36 27 -60 44 l-45 31 -230
-85z"/>
<path d="M4758 4139 c-78 -9 -117 -26 -124 -56 -6 -24 1 -178 10 -233 2 -14 7
-46 10 -71 4 -25 9 -57 11 -70 27 -171 41 -331 31 -382 -4 -19 -14 -38 -23
-41 -43 -17 -196 98 -388 291 l-111 111 -92 -38 c-92 -38 -159 -80 -169 -106
-3 -8 36 -54 98 -117 171 -171 332 -390 416 -567 60 -127 72 -170 68 -257 -5
-104 -7 -118 -60 -348 -30 -129 -136 -470 -223 -720 -133 -377 -355 -967 -407
-1082 -8 -17 -15 -36 -15 -42 0 -6 -4 -19 -10 -29 -13 -22 -150 -361 -150
-370 0 -4 502 -7 1115 -7 986 0 1114 2 1110 15 -2 8 -7 33 -11 55 -4 22 -8 49
-10 60 -7 35 -25 139 -28 160 -2 11 -11 58 -20 105 -8 47 -17 96 -20 110 -2
14 -13 77 -25 140 -11 63 -23 133 -26 155 -4 22 -8 47 -10 55 -2 8 -7 31 -10
50 -3 19 -12 71 -20 115 -8 44 -17 97 -21 119 -3 21 -8 48 -10 60 -7 32 -43
236 -49 276 -3 19 -10 58 -15 85 -5 28 -12 66 -15 85 -3 19 -8 42 -10 50 -2 8
-6 33 -10 55 -3 22 -10 67 -15 100 -10 58 -14 83 -25 142 -3 16 -8 44 -11 63
-3 19 -23 139 -44 265 -55 334 -63 401 -56 475 11 126 83 301 230 564 99 178
109 202 103 248 -7 55 -59 154 -112 215 -46 53 -96 83 -137 83 -38 0 -103 -78
-178 -215 -110 -201 -159 -278 -205 -317 -28 -24 -62 -22 -76 4 -32 59 -17
221 54 593 7 39 13 85 13 104 -1 30 -5 35 -41 48 -45 16 -200 22 -287 12z"/>
</g>
</svg>
